 <svg xmlns="http://www.w3.org/2000/svg" width="365" height="351" viewBox="0 0 365 351" fill="none">
                <rect y="0.5" width="365" height="350" rx="20" fill="currentcplor" fill-opacity="0.1" />
                <path
                  d="M53.1249 50.8039C52.5845 51.0492 51.7002 51.736 51.1598 52.3247C50.1773 53.4041 50.1773 54.0909 50.1773 84.7534V116.103L51.5528 117.427L52.8793 118.801H115.763L117.089 117.427L118.465 116.103V53.3059L117.089 51.9813L115.763 50.6076L84.9105 50.5095C67.9615 50.4604 53.6653 50.6076 53.1249 50.8039ZM108.885 109.234H59.7572V60.1743H108.885V109.234Z"
                  fill="currentcplor" />
                <path
                  d="M70.3196 67.9749C69.7792 68.2202 68.8949 68.907 68.3545 69.4958C67.4211 70.526 67.3719 71.2619 67.3719 84.7534V98.9318L68.7475 100.256L70.074 101.63H98.568L99.8945 100.256L101.27 98.9318V70.477L99.8945 69.1523L98.568 67.7787L84.9105 67.6805C77.4431 67.6315 70.86 67.7787 70.3196 67.9749ZM91.6901 92.0634H76.9518V77.3454H91.6901V92.0634Z"
                  fill="currentcplor" />
                <path
                  d="M249.636 50.8039C249.095 51.0492 248.211 51.736 247.671 52.3247C246.688 53.4041 246.688 54.0909 246.688 84.7534V116.103L248.064 117.427L249.39 118.801H312.273L313.6 117.427L314.975 116.103V53.3059L313.6 51.9813L312.273 50.6076L281.421 50.5095C264.472 50.4604 250.176 50.6076 249.636 50.8039ZM305.396 109.234H256.268V60.1743H305.396V109.234Z"
                  fill="currentcplor" />
                <path
                  d="M266.83 67.9749C266.29 68.2202 265.406 68.907 264.865 69.4958C263.932 70.526 263.883 71.2619 263.883 84.7534V98.9318L265.258 100.256L266.585 101.63H295.079L296.405 100.256L297.781 98.9318V70.477L296.405 69.1523L295.079 67.7787L281.421 67.6805C273.954 67.6315 267.371 67.7787 266.83 67.9749ZM288.201 92.0634H273.463V77.3454H288.201V92.0634Z"
                  fill="currentcplor" />
                <path
                  d="M131.729 53.2569C131.189 53.5022 130.304 54.189 129.764 54.7777C128.831 55.808 128.782 56.5439 128.782 67.5824V79.3078L130.157 80.6324C131.14 81.6627 131.975 82.0061 133.449 82.0061C134.922 82.0061 135.758 81.6627 136.789 80.6324L138.116 79.3078V55.7589L136.888 54.5324C135.512 53.2078 133.252 52.6191 131.729 53.2569Z"
                  fill="currentcplor" />
                <path
                  d="M151.38 53.2569C150.84 53.5022 149.956 54.189 149.415 54.7777C148.482 55.808 148.433 56.5439 148.433 67.5824V79.3078L149.808 80.6324C150.791 81.6627 151.626 82.0061 153.1 82.0061C154.574 82.0061 155.409 81.6627 156.44 80.6324L157.767 79.3078V55.7589L156.539 54.5324C155.163 53.2078 152.903 52.6191 151.38 53.2569Z"
                  fill="currentcplor" />
                <path
                  d="M229.985 55.7099C229.444 55.9552 228.56 56.642 228.019 57.2307C227.086 58.261 227.037 59.095 226.89 78.8172L226.742 99.3243L223.352 99.5205C220.405 99.6677 219.717 99.913 218.587 101.041C216.72 102.906 216.72 105.751 218.587 107.615C219.913 108.989 219.962 108.989 226.791 108.989C233.62 108.989 233.669 108.989 234.996 107.615L236.371 106.291V58.2119L235.143 56.9854C233.767 55.6608 231.508 55.0721 229.985 55.7099Z"
                  fill="currentcplor" />
                <path
                  d="M168.28 59.4384C165.578 60.9102 165.234 65.1294 167.691 67.0428C168.771 67.8768 169.705 68.024 174.47 68.024H180.022L180.218 72.4394C180.366 76.4623 180.464 76.9529 181.741 78.1794L183.068 79.5531H211.562L212.888 78.2284C214.755 76.3151 214.755 73.4696 212.888 71.5563L211.562 70.2317L189.946 69.9373V66.454C189.946 62.5292 189.012 60.0762 187.194 59.2422C185.327 58.4082 169.901 58.5554 168.28 59.4384Z"
                  fill="currentcplor" />
                <path
                  d="M128.29 89.2179C126.669 90.15 126.129 91.2294 126.08 93.3389C126.08 94.9089 126.374 95.6938 127.357 96.675C128.634 97.9015 128.782 97.9506 135.217 97.9506H141.8V108.646L136.888 108.842C132.319 108.989 131.877 109.136 130.599 110.363C129.273 111.687 129.273 111.835 129.125 118.85C128.929 126.847 129.322 128.466 131.533 129.594C133.596 130.674 135.217 130.477 136.986 128.907C138.509 127.583 138.558 127.387 138.656 123.167L138.754 118.801L143.716 118.556C150.987 118.212 150.84 118.458 151.135 107.125L151.38 98.1959L155.605 97.9506C160.125 97.7053 161.009 97.2637 161.943 95.007C162.68 93.1918 162.237 91.3275 160.715 89.8066L159.535 88.6292H144.404C133.94 88.6782 128.978 88.8254 128.29 89.2179Z"
                  fill="currentcplor" />
                <path
                  d="M178.4 90.0519C175.256 91.3765 174.421 95.4485 176.828 97.8034L178.155 99.1771L197.216 99.4715L197.413 104.083C197.56 108.4 197.659 108.842 198.936 110.068C199.918 111.099 200.754 111.442 202.227 111.442C203.701 111.442 204.536 111.099 205.568 110.068C206.796 108.842 206.895 108.4 207.042 104.132L207.238 99.5205L209.449 99.2752C212.495 98.9318 214.264 97.2147 214.264 94.5164C214.264 93.0446 213.92 92.2106 212.888 91.1803L211.562 89.8557L195.448 89.7576C186.605 89.7085 178.941 89.8557 178.4 90.0519Z"
                  fill="currentcplor" />
                <path
                  d="M160.616 109.283C157.472 110.167 156.44 114.288 158.7 116.937C159.83 118.261 160.125 118.311 164.841 118.458L169.803 118.654V123.069C169.803 127.338 169.852 127.534 171.277 128.957C172.653 130.281 173.046 130.428 174.863 130.183C178.253 129.742 179.137 128.27 179.137 122.922V118.556H183.313C188.03 118.556 189.896 117.869 190.83 115.858C191.763 113.846 191.518 112.325 189.995 110.608L188.57 108.989L175.355 108.94C168.133 108.891 161.501 109.087 160.616 109.283Z"
                  fill="currentcplor" />
                <path
                  d="M193.139 121.941C190.781 122.971 190.191 124.296 190.044 129.104L189.847 133.666L185.229 133.863C180.955 134.01 180.513 134.108 179.285 135.334C177.418 137.248 177.418 140.093 179.285 141.957L180.611 143.331H196.823L198.15 141.957L199.525 140.633V132.538C199.525 124.59 199.525 124.443 198.297 123.217C196.922 121.892 194.662 121.303 193.139 121.941Z"
                  fill="currentcplor" />
                <path
                  d="M209.842 123.609C208.958 124.345 208.467 125.375 208.27 126.749C208.024 128.564 208.172 128.957 209.498 130.33L210.972 131.802H244.428L244.723 157.804L246.098 159.129C247.965 161.042 250.962 161.042 252.583 159.129C254.254 157.264 254.401 155.351 254.204 139.504L254.057 125.326L252.436 123.903L250.864 122.481H211.12L209.842 123.609Z"
                  fill="currentcplor" />
                <path
                  d="M262.605 125.866C260.689 127.779 260.591 130.772 262.409 132.538C263.047 133.225 263.981 133.814 264.472 133.863C264.963 133.863 265.602 133.961 265.848 134.01C266.143 134.108 271.792 134.157 278.474 134.206L290.559 134.255L290.755 138.67C290.903 142.693 291.001 143.184 292.229 144.41C294.145 146.275 296.995 146.275 298.911 144.41L300.237 143.086V127.289L298.616 125.866L297.044 124.443H264.03L262.605 125.866Z"
                  fill="currentcplor" />
                <path
                  d="M53.1249 126.847C52.5845 127.092 51.7002 127.779 51.1598 128.368C50.2264 129.398 50.1773 130.134 50.1773 139.946V150.445L51.5037 151.77C52.5354 152.8 53.3706 153.143 54.8444 153.143C56.3182 153.143 57.1534 152.8 58.1851 151.77L59.5115 150.445V129.349L58.2833 128.123C56.9077 126.798 54.6479 126.209 53.1249 126.847Z"
                  fill="currentcplor" />
                <path
                  d="M156.293 126.847C155.753 127.092 154.868 127.779 154.328 128.368C153.444 129.349 153.345 130.134 153.345 136.267C153.345 143.037 153.345 143.086 154.721 144.41C155.704 145.441 156.539 145.784 158.013 145.784C159.486 145.784 160.322 145.441 161.353 144.41C162.68 143.086 162.68 143.037 162.68 136.217C162.68 129.545 162.631 129.349 161.451 128.123C160.076 126.798 157.816 126.209 156.293 126.847Z"
                  fill="currentcplor" />
                <path
                  d="M68.9932 128.319L67.372 129.742L67.2246 140.976C67.1263 148.188 67.2737 152.8 67.6176 153.977C68.4036 156.725 69.9266 157.313 76.4114 157.313H81.8155L82.1103 182.334L83.4858 183.659L84.8123 185.032H110.85L112.176 183.659C114.043 181.794 114.043 178.949 112.176 177.035L110.85 175.711L91.6902 175.416V157.313H128.487L128.782 189.693L130.157 191.018C132.024 192.882 134.873 192.882 136.789 191.018L138.116 189.693L138.263 171.639C138.361 161.729 138.263 152.898 138.116 151.966C137.919 151.083 137.281 149.807 136.642 149.169L135.463 147.992H77.001L76.7062 129.742L75.085 128.319C73.0216 126.454 71.0565 126.454 68.9932 128.319Z"
                  fill="currentcplor" />
                <path
                  d="M92.7218 130.036C89.9707 131.557 89.4794 134.893 91.641 137.297L93.0657 138.916H105.348C117.63 138.916 117.63 138.916 118.907 137.738C121.314 135.482 120.97 131.508 118.17 130.085C116.254 129.055 94.4904 129.055 92.7218 130.036Z"
                  fill="currentcplor" />
                <path
                  d="M212.053 141.761C209.744 142.89 209.056 145.146 209.154 151.426L209.204 157.068H188.226L187.98 154.419C187.735 152.358 187.391 151.573 186.359 150.641C185.033 149.513 184.689 149.464 177.369 149.464C168.87 149.464 167.445 149.856 166.364 152.358C165.578 154.272 166.119 156.577 167.691 157.804C168.771 158.638 169.705 158.785 173.782 158.785H178.646V161.287C178.646 163.397 178.892 163.985 180.071 165.212L181.496 166.635H195.841V175.907L172.161 176.201L170.982 177.575C169.558 179.243 169.41 182.236 170.687 183.757C171.13 184.345 172.26 184.983 173.144 185.228C175.404 185.866 199.378 185.915 201.687 185.278C204.782 184.444 204.88 184.051 205.175 175.024L205.421 166.88L210.088 166.782C216.18 166.586 216.818 166.438 217.948 164.525C218.783 163.2 218.931 162.072 218.931 156.921V150.935H223.598C230.132 150.935 232.195 149.758 232.195 146.029C232.195 143.969 231.458 142.742 229.739 141.859C227.872 140.878 213.92 140.829 212.053 141.761Z"
                  fill="currentcplor" />
                <path
                  d="M308.589 144.018C308.048 144.263 307.164 144.95 306.624 145.539C305.739 146.52 305.641 147.452 305.494 154.909L305.346 163.2H285.744V156.332C285.744 149.022 285.302 147.109 283.337 146.029C281.962 145.294 279.26 145.441 278.081 146.275C276.115 147.648 275.87 149.267 276.017 159.913L276.165 170.069L277.54 171.394L278.867 172.767H312.273L313.6 171.394L314.975 170.069V146.52L313.747 145.294C312.372 143.969 310.112 143.38 308.589 144.018Z"
                  fill="currentcplor" />
                <path
                  d="M151.38 151.377C150.84 151.622 149.956 152.309 149.415 152.898C148.531 153.879 148.433 154.664 148.433 162.023V170.069L149.808 171.394C151.135 172.767 151.184 172.767 158.013 172.767C164.841 172.767 164.89 172.767 166.217 171.394C168.084 169.529 168.084 166.684 166.217 164.819C165.087 163.691 164.399 163.446 161.501 163.299L158.111 163.102L157.914 158.491C157.767 154.37 157.619 153.781 156.539 152.653C155.163 151.328 152.903 150.739 151.38 151.377Z"
                  fill="currentcplor" />
                <path
                  d="M263.637 151.524C261.328 152.702 260.64 155.007 260.689 161.238C260.738 164.329 260.738 167.125 260.738 167.469C260.689 167.861 258.675 168.057 254.008 168.205L247.327 168.352L245.902 169.971C244.035 172.031 244.035 173.994 245.902 176.054L247.327 177.673H267.665L269.09 176.054L270.564 174.386L270.417 164.133C270.269 153.977 270.269 153.879 269.041 152.653C267.518 151.181 265.258 150.69 263.637 151.524Z"
                  fill="currentcplor" />
                <path
                  d="M53.1249 163.642C49.9807 164.967 49.1456 169.039 51.5528 171.394C52.781 172.669 53.2232 172.767 57.4973 172.914L62.1153 173.111L62.3118 177.722C62.4592 181.99 62.5574 182.432 63.8347 183.659C65.7016 185.523 68.551 185.523 70.467 183.659L71.7934 182.334V166.144L70.4179 164.819C69.0914 163.446 69.0423 163.446 61.5749 163.348C57.4973 163.299 53.6653 163.397 53.1249 163.642Z"
                  fill="currentcplor" />
                <path
                  d="M228.805 164.329C226.546 165.653 226.349 166.733 226.3 176.594C226.3 186.798 226.595 188.123 229.199 189.202C231.114 189.987 233.423 189.448 234.652 187.878C235.585 186.7 235.634 185.915 235.634 176.643C235.634 167.027 235.585 166.635 234.553 165.408C233.178 163.887 230.476 163.397 228.805 164.329Z"
                  fill="currentcplor" />
                <path
                  d="M306.132 178.36C305.592 178.605 304.708 179.292 304.167 179.881C303.234 180.862 303.185 181.647 303.185 190.233V199.505L304.56 200.83C305.543 201.86 306.378 202.203 307.852 202.203C309.326 202.203 310.161 201.86 311.193 200.83L312.519 199.505V190.184C312.519 180.911 312.519 180.862 311.291 179.636C309.915 178.311 307.655 177.722 306.132 178.36Z"
                  fill="currentcplor" />
                <path
                  d="M239.515 187.681L238.091 189.104V218.982L239.27 220.257C239.908 220.944 241.186 221.68 242.07 221.827C243.003 221.974 248.653 222.073 254.647 221.974L265.602 221.827L266.929 220.503C268.795 218.589 268.795 215.744 266.929 213.83L265.602 212.506L247.425 212.212V189.104L246 187.681C244.919 186.651 244.084 186.259 242.758 186.259C241.431 186.259 240.596 186.651 239.515 187.681Z"
                  fill="currentcplor" />
                <path
                  d="M259.461 193.078C256.317 194.403 255.482 198.475 257.889 200.83L259.216 202.203L280.783 202.498L281.077 219.129L282.453 220.454L283.779 221.827H312.273L313.6 220.503C315.467 218.589 315.467 215.744 313.6 213.83L312.273 212.506L290.706 212.212L290.412 195.58L289.036 194.256L287.71 192.882L274.052 192.784C266.585 192.735 260.002 192.882 259.461 193.078Z"
                  fill="currentcplor" />
                <path
                  d="M148.04 195.09C145.632 197.003 146.025 201.516 148.629 202.939C149.17 203.184 152.019 203.43 155.016 203.43H160.42L160.715 221.582L162.09 222.907C163.957 224.771 166.806 224.771 168.673 222.907L170.049 221.582L170.344 203.43H175.748C178.744 203.43 181.594 203.184 182.134 202.939C184.738 201.516 185.131 197.003 182.724 195.09C181.496 194.157 180.808 194.108 165.382 194.108C149.956 194.108 149.268 194.157 148.04 195.09Z"
                  fill="currentcplor" />
                <path
                  d="M104.218 195.04C101.958 196.022 101.761 196.758 101.516 205.834L101.27 214.468L86.7774 214.714C78.8187 214.861 71.9899 215.155 71.6461 215.351C71.3513 215.597 70.7126 216.431 70.2705 217.265C69.6318 218.54 69.5827 219.129 70.0248 220.699C71.0565 223.986 71.2039 224.035 90.7076 224.035H108.001L109.425 222.563L110.899 221.14L110.752 209.121C110.604 197.739 110.555 197.003 109.573 196.071C108.443 194.942 105.692 194.403 104.218 195.04Z"
                  fill="currentcplor" />
                <path
                  d="M53.1249 195.531C52.5845 195.776 51.7002 196.463 51.1598 197.052C50.2755 198.033 50.1773 198.965 50.0299 208.532C49.9316 215.155 50.079 219.571 50.4229 220.699C51.6511 224.869 57.7921 225.114 59.2168 221.042C59.5115 220.159 59.7572 216.283 59.7572 212.212V204.951L88.7425 204.656L90.0689 203.283C91.9358 201.418 91.9358 198.573 90.0689 196.659L88.7425 195.335L71.4004 195.237C61.9188 195.188 53.6653 195.335 53.1249 195.531Z"
                  fill="currentcplor" />
                <path
                  d="M193.139 195.531C189.995 196.856 189.159 200.928 191.567 203.283C192.697 204.411 193.384 204.656 196.283 204.803L199.722 205L200.017 221.582L201.392 222.907C203.259 224.771 206.109 224.771 208.025 222.907L209.351 221.582V198.033L207.975 196.709C206.649 195.384 206.502 195.335 200.361 195.237C196.922 195.139 193.679 195.286 193.139 195.531Z"
                  fill="currentcplor" />
                <path
                  d="M218.292 200.241C217.654 200.928 216.966 202.105 216.818 202.841C216.671 203.577 216.524 210.887 216.524 219.129L216.573 234.092L207.779 234.338C202.964 234.485 198.641 234.779 198.15 235.024C197.118 235.515 195.841 237.821 195.841 239.244C195.841 241.255 197.266 243.119 199.181 243.659C200.361 244.002 204.979 244.15 212.2 244.051L223.451 243.904L224.875 242.285L226.349 240.666L226.054 201.369L224.679 200.192C222.763 198.573 219.963 198.573 218.292 200.241Z"
                  fill="currentcplor" />
                <path
                  d="M125.343 205.588C124.704 206.226 124.065 207.502 123.869 208.385C123.721 209.317 123.623 217.068 123.721 225.605L123.869 241.206L125.244 242.531L126.571 243.904H174.716L176.042 242.531C177.909 240.666 177.909 237.821 176.042 235.908L174.716 234.583L133.449 234.289V221.288C133.449 207.502 133.252 206.128 131.041 204.902C129.322 204.018 126.62 204.313 125.343 205.588Z"
                  fill="currentcplor" />
                <path
                  d="M144.306 210.004C142.193 211.181 141.849 212.555 141.8 219.276C141.8 226.586 142.292 228.058 144.994 228.941C146.369 229.383 147.106 229.383 148.236 228.941C150.889 227.813 151.135 226.979 151.135 219.227V212.162L149.71 210.74C148.138 209.17 146.271 208.924 144.306 210.004Z"
                  fill="currentcplor" />
                <path
                  d="M184.738 209.808C182.331 210.789 182.085 211.819 182.085 221.827C182.085 232.081 182.232 232.67 184.984 233.847C187.047 234.681 189.7 233.749 190.682 231.885C191.616 230.069 191.763 213.978 190.83 212.015C189.847 209.808 187.096 208.826 184.738 209.808Z"
                  fill="currentcplor" />
                <path
                  d="M53.1249 232.326C52.5845 232.571 51.7002 233.258 51.1598 233.847C50.1773 234.926 50.1773 235.613 50.1773 266.276V297.625L51.5528 298.95L52.8793 300.323H115.763L117.089 298.95L118.465 297.625V234.828L117.089 233.504L115.763 232.13L84.9105 232.032C67.9615 231.983 53.6653 232.13 53.1249 232.326ZM108.885 290.757H59.7572V241.697H108.885V290.757Z"
                  fill="currentcplor" />
                <path
                  d="M70.7618 249.399C70.1722 249.497 69.1897 250.135 68.551 250.822L67.3719 252.097V280.454L68.7475 281.779L70.074 283.152H98.568L99.8945 281.779L101.27 280.454V251.999L99.8945 250.675L98.568 249.301L85.1562 249.252C77.8361 249.203 71.3022 249.252 70.7618 249.399ZM91.6901 273.586H76.9518V258.868H91.6901V273.586Z"
                  fill="currentcplor" />
                <path
                  d="M249.636 232.326C249.095 232.571 248.211 233.258 247.671 233.847C246.688 234.926 246.688 235.613 246.688 266.276V297.625L248.064 298.95L249.39 300.323H312.273L313.6 298.95L314.975 297.625V234.828L313.6 233.504L312.273 232.13L281.421 232.032C264.472 231.983 250.176 232.13 249.636 232.326ZM305.396 290.757H256.268V241.697H305.396V290.757Z"
                  fill="currentcplor" />
                <path
                  d="M267.272 249.399C266.683 249.497 265.7 250.135 265.062 250.822L263.883 252.097V280.454L265.258 281.779L266.585 283.152H295.079L296.405 281.779L297.781 280.454V251.999L296.405 250.675L295.079 249.301L281.667 249.252C274.347 249.203 267.813 249.252 267.272 249.399ZM288.201 273.586H273.463V258.868H288.201V273.586Z"
                  fill="currentcplor" />
                <path
                  d="M126.816 254.403C126.276 254.648 125.392 255.335 124.851 255.924C124.016 256.856 123.869 257.837 123.721 263.381C123.427 273.929 123.623 274.076 135.021 274.076H143.225L143.52 297.625L144.846 298.95C146.762 300.814 149.612 300.814 151.528 298.95L152.854 297.625L153.001 283.741C153.1 274.665 152.952 269.268 152.608 268.091C151.773 265.147 150.496 264.755 141.407 264.755H133.547L133.35 260.83C133.203 257.445 133.056 256.758 131.975 255.679C130.599 254.354 128.339 253.765 126.816 254.403Z"
                  fill="currentcplor" />
                <path
                  d="M160.616 256.464C157.472 257.396 156.44 261.468 158.7 264.117L159.879 265.491L188.521 265.638C209.498 265.736 217.555 265.589 218.587 265.196C220.11 264.559 221.387 262.498 221.387 260.634C221.387 259.947 220.749 258.671 219.963 257.788L218.538 256.169L190.339 256.071C174.175 256.022 161.501 256.218 160.616 256.464Z"
                  fill="currentcplor" />
                <path
                  d="M232.932 262.007C230.721 262.989 230.23 264.559 230.23 270.887V276.48L204.094 276.775L202.915 278.148C201.54 279.767 201.343 282.613 202.473 284.232C202.915 284.82 204.045 285.556 205.077 285.851C207.288 286.439 232.49 286.488 235.634 285.9C239.417 285.164 239.564 284.673 239.564 273.978C239.564 268.532 239.368 264.313 239.073 263.725C238.533 262.743 236.125 261.321 235.045 261.321C234.701 261.37 233.718 261.664 232.932 262.007Z"
                  fill="currentcplor" />
                <path
                  d="M159.879 274.371C158.209 275.254 157.521 276.48 157.521 278.492C157.521 280.552 158.258 281.779 159.978 282.662C161.108 283.25 163.466 283.398 171.768 283.398H182.085V290.413C182.085 298.067 182.331 298.95 184.934 300.029C185.917 300.421 190.879 300.569 202.424 300.471L218.538 300.323L219.963 298.704C221.829 296.644 221.829 294.681 219.963 292.621L218.538 291.002L191.419 290.708V284.084C191.419 276.578 190.928 275.008 188.423 274.125C187.44 273.782 182.183 273.586 174.028 273.586C163.662 273.635 160.96 273.782 159.879 274.371Z"
                  fill="currentcplor" />
              </svg>