<svg width="1126" height="1401" viewBox="0 0 1126 1401" fill="none" xmlns="http://www.w3.org/2000/svg">
<path d="M0.640102 1400.47H613.932C1209.68 1400.47 1263.75 785.888 887.515 668.42C1237.49 531.477 1226.87 0.467773 672.659 0.467773L0.639282 0.467773L0.642561 246.99C169.621 231.466 295.359 280.62 461.747 314.784C497.557 96.2417 895.751 276.943 1041.14 166.87C955.791 362.856 649.264 221.475 671.943 376.414C680.776 422.267 776.029 551.322 734.251 662.503C753.827 748.786 770.06 859.721 809.092 901.877C856.838 953.4 810.286 1101.81 684.357 1146.06C597.937 1160.6 600.802 1100.45 559.383 1077.65C486.451 1037.71 400.867 1066.18 293.201 961.042C113.319 1034.38 138.386 1214.47 0.640102 1400.47ZM0.642561 662.503C183.031 594.833 344.527 556.499 573.587 585.958C434.05 517.425 211.798 473.914 0.642561 499.675L0.642561 662.503ZM0.642561 1048.19C210.127 867.117 279.474 801.788 573.587 715.382C374.368 698.989 178.492 690.977 0.639912 795.502C0.639646 875.622 0.642561 961.042 0.642561 1048.19Z" fill="#F49420" fill-opacity="0.05"/>
</svg>
